<svg xmlns="http://www.w3.org/2000/svg" viewBox="0 0 200 205"><defs><style>.cls-5{fill:#f2a679}.cls-6{fill:#a65e58}</style></defs><g style="isolation:isolate"><g id="map"><g style="mix-blend-mode:multiply" opacity=".3"><circle cx="100" cy="105" r="99"/><path d="M100 7a98 98 0 11-98 98 98.111 98.111 0 0198-98m0-2a100 100 0 10100 100A100 100 0 00100 5z"/></g><circle cx="100" cy="100" r="99" fill="#fff"/><path d="M100 2a98 98 0 11-98 98 98.111 98.111 0 0198-98m0-2a100 100 0 10100 100A100 100 0 00100 0z" fill="#bebfbf"/><path class="cls-5" d="M110.178 126.509l-.006-.037c-1.47-8.724 3.507-14.992 3.897-22.94.469-9.553-8.86-16.599-17.07-18.483a20.622 20.622 0 00-11.977.599c-10.655 4.022-8.136 10.228-20.3 4.697-3.625-1.648-7.352-3.352-11.469-3.475-14.91-.443-22.856 16.49-20.68 29.026 3.282 18.897 28.371 32.703 40.686 45.311 11.45 11.724 40.531 1.697 40.415-16.89-.039-6.17-2.48-11.818-3.496-17.808zM74.439 79.083c-4.114.32-8.613-1.765-12.69-7.821-8.183-12.155 12.122-32.226 22.445-29.84 14.06 3.249 2.137 36.738-9.755 37.661zM107.41 79.062c-24.714-3.79-1.921-44.908 17.26-35.345 12.97 6.465-5.524 37.144-17.26 35.345zM133.578 100.582c-4.413.254-8.247-1.96-10.238-7.978-4.663-14.097 19.647-30.928 28.82-26.505 15.623 7.534-4.445 33.669-18.582 34.483zM121.653 126.382c.369 4.074 3.352 7.958 10.473 10.502 14.291 5.105 32.077-19.332 27.773-28.807-5.862-12.904-39.313 6.53-38.246 18.305z"/><path class="cls-6" d="M85.339 36.112a17.027 17.027 0 007.25 4.12c1.954-3.1.19-7.467 1.352-10.81-.722.325-9.09 6.187-8.602 6.69zM122.609 36.993c1.176.969 7.115 4.288 7.567 3.326 1.43-3.043.085-7.472-.094-10.674-3.121 1.571-5.348 4.687-7.631 7.201a1.355 1.355 0 00.158.147zM157.94 64.476a1.683 1.683 0 00-.024.441c.087 1.32 1.595 2.439 2.511 3.207 2.136 1.791 3.23 2.397 4.249-.427.678-1.88 2.536-5.991 1.893-7.838-2.358.445-4.591 1.945-6.69 3.075-1.002.54-1.783.764-1.939 1.542zM161.117 100.173c-.069.441.223.984.824 1.88a9.626 9.626 0 002.837 2.996c3.664 2.068 5.096-7.06 5-9.128a7.19 7.19 0 00-3.285.872 53.745 53.745 0 00-3.855 2.006c-.96.547-1.447.902-1.52 1.374z"/></g></g></svg>