<svg xmlns="http://www.w3.org/2000/svg" viewBox="0 0 200 205"><defs><style>.cls-5{fill:#1e303c}</style></defs><g style="isolation:isolate"><g id="map"><g style="mix-blend-mode:multiply" opacity=".3"><circle cx="100" cy="105" r="99"/><path d="M100 7a98 98 0 11-98 98 98.111 98.111 0 0198-98m0-2a100 100 0 10100 100A100 100 0 00100 5z"/></g><circle cx="100" cy="100" r="99" fill="#fff"/><path d="M100 2a98 98 0 11-98 98 98.111 98.111 0 0198-98m0-2a100 100 0 10100 100A100 100 0 00100 0z" fill="#bebfbf"/><g id="pOBzZH.tif"><path class="cls-5" d="M175.713 78.601v-8.947l-1.679-.58c-1.16-.404-28.928-9.86-73.033-9.86s-71.873 9.456-73.033 9.86l-1.68.58v8.947H14.592v38.8h11.698v7.034l32.14 25.254a14.757 14.757 0 0018.617-.493l17.454-15.22a10.036 10.036 0 0113.002 0l17.454 15.22a14.65 14.65 0 009.61 3.647 14.448 14.448 0 009.005-3.151l32.142-25.257V117.4h11.698v-38.8z"/><path class="cls-5" d="M174.034 69.073c-1.16-.403-28.928-9.858-73.033-9.858s-71.873 9.455-73.033 9.858l-1.68.582v2.58l1.68-.582c1.16-.403 28.928-9.858 73.033-9.858s71.873 9.455 73.033 9.858l1.679.582v-2.58z"/><path d="M34.829 76.382V119.9l28.697 22.554a6.279 6.279 0 003.911 1.369 6.36 6.36 0 004.173-1.584l17.454-15.22a17.985 17.985 0 0123.874 0l17.454 15.22a6.36 6.36 0 004.173 1.584 6.278 6.278 0 003.91-1.37l28.698-22.553V76.39c-9.247-2.564-33.194-8.152-66.173-8.152-33.09 0-56.952 5.58-66.171 8.145z" fill="#aadbc0"/><path d="M134.565 133.68a6.359 6.359 0 01-4.173-1.583l-17.454-15.22a17.985 17.985 0 00-23.874 0l-17.454 15.22a6.36 6.36 0 01-4.173 1.584 6.279 6.279 0 01-3.91-1.369l-28.698-22.554V119.9l28.697 22.554a6.279 6.279 0 003.911 1.369 6.36 6.36 0 004.173-1.584l17.454-15.22a17.985 17.985 0 0123.874 0l17.454 15.22a6.36 6.36 0 004.173 1.584 6.278 6.278 0 003.91-1.37l28.698-22.553v-10.14l-28.698 22.553a6.278 6.278 0 01-3.91 1.369z" fill="#77c69a"/><path d="M101 68.237c-33.09 0-56.952 5.58-66.171 8.145v5.16c9.22-2.565 33.08-8.146 66.172-8.146 32.979 0 56.926 5.59 66.172 8.152v-5.16c-9.246-2.563-33.193-8.151-66.172-8.151z" fill="#88cda7"/></g></g></g></svg>