<svg xmlns="http://www.w3.org/2000/svg" viewBox="0 0 200 205"><defs><style>.cls-8{fill:#fbe4be}</style></defs><g style="isolation:isolate"><g id="map"><g style="mix-blend-mode:multiply" opacity=".3"><circle cx="100" cy="105" r="99"/><path d="M100 7a98 98 0 11-98 98 98.111 98.111 0 0198-98m0-2a100 100 0 10100 100A100 100 0 00100 5z"/></g><circle cx="100" cy="100" r="99" fill="#fff"/><path d="M100 2a98 98 0 11-98 98 98.111 98.111 0 0198-98m0-2a100 100 0 10100 100A100 100 0 00100 0z" fill="#bebfbf"/><g id="utaceR.tif"><path d="M102.489 55.273l-.29-.168c-.126-10.395-4.248-12.81-17.434-10.821-12.83 1.935-25.687 3.738-38.579 5.185-8.015.9-12.513 4.134-11.038 12.829l-.34 47.332c-3.677 9.846-.466 20.132-1.933 30.118-6.455 1.152-4.64 6.177-4.418 10.069.262 4.574 4.373 3.91 7.005 3.47 13.471-2.249 28.23 5.844 40.642-4.952a1.891 1.891 0 011.753.02c7.63 5.068 16.258 2.01 24.13 3.294 8.716 1.422 17.128-.42 25.698.32 10.84.935 22.144-.701 33.303.662 4.335.53 8.732-.69 10.235-5.594 1.102-3.599.217-6.677-4.37-7.16-1.685-3.65-1.758-7.557-2.196-11.48-2.27-20.356-24.25-37.528-45.89-23.04-6.585 4.41-9.671 2.952-10.63-4.984-1.534-12.717-2.96-25.446-4.433-38.17l-.014-1.8.008-3.63z" fill="#fdfdfd"/><path d="M103.705 62.203c1.472 12.724 2.898 25.453 4.433 38.17.958 7.936 4.044 9.394 10.63 4.985 21.64-14.49 43.62 2.683 45.89 23.04.438 3.922.511 7.829 2.197 11.482-36.716.775-73.433.964-110.149-.042 3.192-10.276-3.878-24.055-14.135-26.278a15.794 15.794 0 01-7.764-3.93l.34-47.333c4.51-.228 9.05-.208 13.529-.726 17.852-2.064 35.684-4.296 53.524-6.466l.29.165q.605.747 1.21 1.502c-.004 1.21-.006 2.42-.003 3.629-.145.184-.445.394-.42.552a7.006 7.006 0 00.428 1.25z" fill="#e6cdab"/><path d="M56.706 139.837c36.716 1.007 73.432.818 110.148.042 4.587.48 5.471 3.559 4.369 7.158-1.502 4.904-5.9 6.123-10.234 5.594-11.16-1.364-22.463.272-33.304-.662-8.57-.74-16.981 1.101-25.698-.32-7.871-1.284-16.5 1.774-24.13-3.295a1.891 1.891 0 00-1.753-.02c-12.412 10.796-27.17 2.704-40.641 4.953-2.633.44-6.744 1.103-7.006-3.47-.222-3.893-2.036-8.918 4.418-10.067a112.061 112.061 0 0023.83.087z" fill="#a68f81"/><path class="cls-8" d="M102.2 55.105c-17.84 2.17-35.673 4.402-53.525 6.466-4.478.518-9.019.498-13.529.726-1.472-8.694 3.026-11.929 11.04-12.828 12.892-1.447 25.75-3.25 38.579-5.185 13.186-1.99 17.309.426 17.434 10.82z"/><path d="M56.706 139.837a112.061 112.061 0 01-23.831-.087c1.468-9.988-1.744-20.274 1.932-30.12a15.786 15.786 0 007.764 3.93c10.257 2.222 17.327 16.002 14.135 26.277z" fill="#fae4bd"/><path class="cls-8" d="M103.699 56.772q-.605-.753-1.21-1.502.605.754 1.21 1.502zM103.705 62.203a7.006 7.006 0 01-.428-1.25c-.026-.158.274-.368.42-.553-.002.603.003 1.203.008 1.803z"/></g></g></g></svg>