<svg xmlns="http://www.w3.org/2000/svg" viewBox="0 0 200 205"><defs><style>.cls-6{fill:none}.cls-8{fill:#bf8275}</style></defs><g style="isolation:isolate"><g id="map"><g style="mix-blend-mode:multiply" opacity=".3"><circle cx="100" cy="105" r="99"/><path d="M100 7a98 98 0 11-98 98 98.111 98.111 0 0198-98m0-2a100 100 0 10100 100A100 100 0 00100 5z"/></g><circle cx="100" cy="100" r="99" fill="#fff"/><path d="M100 2a98 98 0 11-98 98 98.111 98.111 0 0198-98m0-2a100 100 0 10100 100A100 100 0 00100 0z" fill="#bebfbf"/><g id="pOBzZH.tif"><path d="M139.06 156.577c10.55 3.023 21.056 6.16 30.598 12.032-46.752 47.528-107.534 31.391-139.724 0 9.517-5.978 20.001-9.12 30.6-11.96l1.59-.271c1.01.137 1.982.166 2.557-.912 11.13-1.67 22.272-3.238 33.556-3.377a4.35 4.35 0 003.032.109c6.378.307 12.759.418 19.124 1.153 5.38.622 10.584 2.426 16.064 2.271.625.982 1.6 1.007 2.603.955z" fill="#a9cc6b"/><path class="cls-6" d="M110.93 83.984c-.165.071-.338.119-.505.186h.054l2.554 4.328-.975-5.217a4.685 4.685 0 01-1.128.703z"/><path d="M112.057 83.28l.976 5.218 5.374 9.105a5.126 5.126 0 01.736 2.625 5.597 5.597 0 01-2.693 4.643l.122.207a3.139 3.139 0 00.866-.168 22.812 22.812 0 0020.653 11.06V98.2l-12.883-26.058a1.212 1.212 0 112.173-1.074l10.71 21.66V75.583a1.212 1.212 0 112.424 0v18.802l11.739-15.05a1.212 1.212 0 111.912 1.491l-13.65 17.502v17.409c8.235-1.226 16.333-6.932 20.915-18.02 2.567-.925 5.114 2.373 5.759-4.706.006-27.569-28.67-51.868-27.104-66.166-1.56 1.184-27.8 22.19-29.753 47.211l2.68 4.541a3.585 3.585 0 01-.956 4.684z" fill="#bbc792"/><path class="cls-8" d="M140.515 94.385V75.583a1.212 1.212 0 10-2.424 0v17.145l1.442 2.917zM140.257 98.659a1.212 1.212 0 01-2.043-.209l-.123-.25v60.876c.403.093.81.173 1.212.268.387.091.768.195 1.154.289a1.16 1.16 0 00.058-.289V98.328z"/><path class="cls-8" d="M139.178 99.119a1.22 1.22 0 001.08-.46l.257-.331 13.65-17.502a1.212 1.212 0 10-1.912-1.49l-11.738 15.05-.983 1.26-1.442-2.918-10.709-21.66a1.212 1.212 0 10-2.173 1.074L138.09 98.2l.124.25a1.212 1.212 0 00.964.669z"/><path class="cls-6" d="M99.988 138.562c0-.01.005-.019.006-.03a53.612 53.612 0 01-19.96-4.257 9.277 9.277 0 01-5.028-4.878h-.003a27.872 27.872 0 01-9.112 3.154 1.114 1.114 0 01.033.164v25.999a166.328 166.328 0 0134.067-3.76c0-.007-.003-.012-.003-.017zM117.438 104.91a3.139 3.139 0 01-.866.168l10.319 17.48a7.692 7.692 0 011.097 3.918 8.684 8.684 0 01-5.63 7.8 53.615 53.615 0 01-19.952 4.257c0 .011.006.02.006.03v16.376c0 .006-.003.01-.003.017a165.786 165.786 0 0135.681 4.122V115.97a22.812 22.812 0 01-20.652-11.061z"/><path class="cls-8" d="M65.924 158.714v-25.998a1.114 1.114 0 00-.033-.165c-.39.062-.783.12-1.179.165-.399.047-.808.057-1.212.086v26.167a1.17 1.17 0 00.056.278c.386-.09.769-.191 1.156-.278.402-.09.81-.168 1.212-.255zM102.412 138.562c0-.01-.005-.019-.006-.03-.403.009-.806.03-1.21.03-.4 0-.802-.02-1.203-.03 0 .01-.006.02-.006.03v16.375c0 .006.004.011.004.017.403-.002.804-.017 1.209-.017s.805.015 1.209.018c0-.006.003-.011.003-.018z"/><path d="M65.891 132.551a27.872 27.872 0 009.112-3.153h.003a7.554 7.554 0 01.497-6.84l10.44-17.688a5.32 5.32 0 01-1.95-7.267l3.085-5.227a37.234 37.234 0 00-5.715-9.926v-.006l-.001.002a69.09 69.09 0 01-23.687-4.345 90.448 90.448 0 0021.863-.863 164.167 164.167 0 01-2.15-7.129c-4.842-17.432-3.327-21.966-6.769-23.372-10.342-4.22-45.823 27.866-38.888 58.024.08.337.16.68.251 1.023 4.665 1.67 12.995 3.494 25.693 2.327 0 0-10.617 5.854-22.531 5.98l-.003.002c4.144 10.679 13.79 17.99 24.67 18.741a26.48 26.48 0 003.689-.033c.404-.028.813-.039 1.212-.085.396-.045.788-.103 1.179-.165z" fill="#67bc89"/><path d="M80.034 134.276a53.612 53.612 0 0019.96 4.257c.4.008.801.03 1.203.03.403 0 .806-.021 1.21-.03a53.615 53.615 0 0019.952-4.257 8.684 8.684 0 005.63-7.8 7.692 7.692 0 00-1.098-3.919l-10.318-17.48-.123-.207a6.863 6.863 0 01-1.078.58 36.425 36.425 0 01-28.343 0 7.088 7.088 0 01-1.085-.58l-10.441 17.688a7.554 7.554 0 00-.497 6.84 9.277 9.277 0 005.028 4.878z" fill="#aed681"/><path d="M85.944 104.87a7.088 7.088 0 001.084.58 36.425 36.425 0 0028.343 0 6.863 6.863 0 001.079-.58 5.597 5.597 0 002.693-4.642 5.126 5.126 0 00-.736-2.625l-5.374-9.105-2.555-4.328h-.053a24.999 24.999 0 01-18.453 0h-.05l-4.844 8.207-3.085 5.226a5.32 5.32 0 001.95 7.268z" fill="#9ccc65"/><path d="M110.425 84.17c.166-.067.34-.115.505-.186a4.685 4.685 0 001.127-.703 3.585 3.585 0 00.956-4.684l-2.68-4.54-7.648-12.96a1.804 1.804 0 00-2.973 0l-10.328 17.5c-1.168 1.979-.235 4.392 2.083 5.387.165.071.339.119.505.186a24.999 24.999 0 0018.453 0z" fill="#8bc44a"/></g></g></g></svg>